<?xml version="1.0" standalone="no"?>
<!DOCTYPE svg PUBLIC "-//W3C//DTD SVG 20010904//EN"
 "http://www.w3.org/TR/2001/REC-SVG-20010904/DTD/svg10.dtd">
<svg version="1.0" xmlns="http://www.w3.org/2000/svg"
 width="1598.000000pt" height="1598.000000pt" viewBox="0 0 1598.000000 1598.000000"
 preserveAspectRatio="xMidYMid meet">
<metadata>
Created by potrace 1.14, written by Peter Selinger 2001-2017
</metadata>
<g transform="translate(0.000000,1598.000000) scale(0.100000,-0.100000)"
fill="#000000" stroke="none">
<path d="M7727 15565 c-1 -2 -65 -6 -142 -10 -77 -4 -156 -8 -175 -10 -59 -4
-173 -16 -210 -20 -19 -3 -91 -11 -160 -20 -140 -17 -172 -21 -215 -29 -16 -2
-50 -8 -75 -11 -25 -4 -124 -22 -220 -41 -1376 -275 -2627 -914 -3665 -1874
-201 -186 -518 -520 -656 -691 -19 -23 -57 -69 -85 -103 -232 -280 -527 -721
-750 -1121 -238 -430 -489 -1033 -614 -1480 -5 -16 -23 -79 -40 -140 -17 -60
-33 -121 -36 -135 -3 -14 -16 -68 -29 -120 -13 -52 -28 -120 -34 -150 -6 -30
-14 -66 -16 -80 -13 -58 -54 -288 -59 -325 -3 -22 -8 -56 -11 -75 -17 -109
-40 -297 -51 -415 -34 -368 -38 -988 -9 -1285 2 -19 6 -71 10 -115 3 -44 8
-91 10 -105 2 -14 6 -50 10 -80 13 -117 16 -136 20 -160 3 -14 7 -43 10 -65 6
-54 17 -122 30 -185 2 -14 7 -41 10 -60 3 -19 12 -66 20 -105 8 -38 16 -81 19
-95 2 -14 12 -56 21 -95 9 -38 19 -81 22 -95 17 -95 135 -505 192 -670 66
-193 163 -447 216 -565 314 -709 656 -1266 1135 -1845 52 -63 97 -117 100
-120 3 -3 43 -48 89 -100 275 -310 789 -779 1115 -1015 16 -11 40 -29 54 -40
188 -143 564 -380 857 -540 75 -41 442 -225 449 -225 2 0 37 -15 78 -34 40
-18 109 -48 153 -66 44 -18 94 -38 110 -45 42 -19 281 -107 390 -143 157 -54
324 -102 538 -157 l207 -53 1 26 c3 64 -1 126 -8 133 -5 4 -57 19 -118 34
-260 63 -738 214 -870 274 -11 5 -58 24 -105 42 -84 32 -102 39 -270 114 -532
236 -1110 591 -1595 980 -407 327 -864 783 -1145 1145 -19 25 -37 47 -40 50
-23 22 -238 319 -335 465 -428 640 -741 1313 -955 2050 -66 226 -145 562 -165
701 -4 22 -8 46 -10 54 -2 8 -7 31 -10 50 -3 19 -10 60 -15 90 -5 30 -12 75
-15 100 -3 25 -8 56 -10 70 -2 14 -7 52 -10 85 -4 33 -8 74 -10 90 -3 17 -7
62 -10 100 -4 39 -8 86 -10 105 -27 275 -27 953 0 1225 2 22 6 69 10 105 3 36
7 81 10 100 2 19 7 55 10 80 6 46 14 106 20 150 3 14 7 45 10 70 3 25 7 56 10
70 2 14 7 41 10 60 9 54 42 219 70 350 88 412 277 995 439 1353 14 31 37 81
50 110 94 209 244 496 364 697 32 52 62 103 67 112 149 255 565 817 755 1019
8 8 58 63 111 120 261 282 529 532 835 777 97 79 349 262 464 339 150 101 309
203 314 203 2 0 45 25 95 55 51 30 93 55 95 55 1 0 49 26 107 58 131 73 536
272 553 272 3 0 35 14 71 30 36 17 68 30 70 30 3 0 24 9 48 20 182 84 789 279
1047 336 19 4 40 9 45 10 156 39 427 90 640 119 208 29 234 32 337 40 45 4 93
8 106 10 166 27 1010 27 1212 0 19 -2 69 -7 110 -11 41 -4 86 -8 100 -9 14 -2
50 -6 81 -9 31 -4 66 -8 78 -11 13 -2 49 -7 80 -11 47 -5 370 -61 451 -78 14
-3 36 -8 50 -11 14 -3 34 -7 45 -9 77 -15 409 -103 545 -145 897 -273 1745
-721 2470 -1305 139 -111 135 -108 275 -232 265 -233 574 -551 789 -814 43
-52 86 -104 95 -115 9 -11 32 -40 51 -65 19 -25 38 -49 43 -55 19 -23 145
-197 172 -237 17 -23 32 -45 35 -48 3 -3 45 -64 92 -136 419 -638 733 -1323
942 -2059 38 -135 114 -450 130 -535 2 -14 13 -74 25 -135 11 -60 23 -126 26
-145 3 -19 7 -46 10 -60 2 -14 7 -49 10 -79 4 -30 8 -61 10 -70 1 -9 6 -45 10
-81 4 -36 9 -74 11 -85 2 -11 6 -54 9 -96 3 -42 7 -86 10 -97 26 -135 26 -978
1 -1227 -2 -16 -7 -66 -11 -110 -7 -84 -8 -92 -24 -220 -20 -156 -22 -166 -66
-424 -40 -232 -138 -626 -221 -885 -171 -531 -405 -1051 -687 -1526 -153 -258
-437 -670 -576 -836 -14 -17 -33 -40 -41 -50 -63 -80 -111 -136 -190 -225
-246 -276 -527 -552 -755 -744 -44 -37 -91 -77 -105 -89 -61 -53 -337 -261
-460 -347 -773 -541 -1644 -929 -2565 -1143 l-180 -42 -1 -72 c-1 -40 3 -75 8
-78 5 -3 41 1 81 10 40 9 81 18 92 20 212 41 664 176 975 291 303 112 750 318
998 459 35 20 66 36 68 36 2 0 28 16 58 35 30 19 57 35 60 35 9 0 288 177 421
268 291 198 576 424 845 667 152 138 501 497 611 629 13 16 31 36 40 45 142
146 556 719 719 996 29 50 61 102 71 117 11 15 19 29 19 31 0 2 27 53 61 113
127 228 270 528 394 829 174 422 360 1071 429 1500 24 149 46 299 51 340 3 28
8 64 10 80 3 17 7 55 10 85 3 30 8 82 11 115 33 322 38 997 9 1280 -2 22 -6
67 -9 100 -14 149 -19 192 -46 385 -34 234 -31 215 -71 420 -141 720 -436
1526 -784 2145 -38 66 -79 140 -93 165 -72 129 -260 417 -391 600 -67 94 -269
358 -296 386 -5 6 -23 28 -40 49 -16 21 -35 43 -41 49 -5 6 -58 66 -118 133
-107 122 -379 401 -511 523 -172 160 -461 399 -655 540 -41 30 -77 57 -80 61
-12 14 -405 270 -515 336 -341 202 -718 392 -1000 503 -44 17 -93 37 -110 44
-41 19 -342 127 -440 159 -299 97 -733 204 -1025 253 -25 4 -47 8 -50 9 -5 1
-101 16 -135 21 -88 12 -354 44 -410 49 -38 3 -88 8 -110 10 -111 12 -299 18
-568 20 -163 1 -298 1 -300 0z"/>
<path d="M7429 14903 c-1 -81 -2 -215 -4 -298 -2 -82 -6 -336 -10 -563 -4
-227 -8 -426 -9 -442 -1 -17 0 -30 3 -31 3 -1 45 -2 94 -3 81 -2 87 -1 88 18
1 31 7 303 9 444 l2 123 346 -6 c682 -12 746 -15 842 -40 126 -33 134 -54 133
-342 l-1 -222 78 -3 c43 -2 85 -2 94 0 13 3 15 30 12 230 -1 138 -7 241 -14
263 -18 55 -76 115 -130 135 -26 9 -50 21 -55 26 -4 4 -4 6 -1 3 4 -2 29 4 56
15 139 53 187 154 192 405 4 208 -30 286 -151 342 -117 54 -262 70 -693 78
-151 2 -411 7 -577 11 l-303 6 -1 -149z m1130 -29 c101 -3 191 -7 200 -9 9 -1
36 -6 61 -10 59 -9 115 -41 131 -74 17 -32 22 -276 7 -347 -16 -76 -59 -112
-155 -132 -53 -10 -1193 -4 -1198 7 -1 1 0 29 1 64 1 34 3 165 5 290 l4 229
380 -6 c209 -4 463 -9 564 -12z"/>
<path d="M10015 14702 c-21 -48 -51 -116 -68 -152 -16 -36 -37 -83 -47 -105
-9 -22 -27 -60 -38 -85 -43 -96 -112 -252 -182 -410 -40 -91 -87 -198 -106
-238 -19 -41 -34 -76 -34 -78 0 -2 -16 -39 -36 -81 -61 -131 -64 -115 29 -156
45 -20 85 -33 89 -29 3 4 64 138 134 297 70 160 132 295 138 301 8 9 40 -2
122 -38 96 -43 114 -55 131 -86 11 -21 130 -215 263 -432 133 -217 250 -407
259 -421 9 -15 30 -51 48 -80 21 -36 43 -59 65 -68 18 -8 72 -31 119 -53 48
-21 89 -38 92 -38 3 0 -145 252 -330 560 -185 308 -334 562 -332 565 3 2 20 7
39 10 19 3 58 10 85 15 28 5 61 11 75 14 25 4 173 32 220 41 14 3 77 14 140
26 63 11 133 24 155 29 22 5 65 13 95 19 320 59 433 82 428 86 -2 2 -57 27
-123 56 l-120 52 -95 -16 c-52 -9 -158 -28 -235 -41 -332 -59 -432 -77 -460
-82 -16 -2 -37 -7 -45 -9 -8 -2 -33 -6 -55 -10 -22 -3 -87 -14 -144 -25 l-103
-20 -107 47 c-58 25 -109 49 -113 52 -4 4 51 137 122 296 72 160 130 293 130
296 0 4 -21 15 -47 27 -27 11 -64 27 -84 36 l-37 15 -37 -87z"/>
<path d="M5720 14660 l-115 -37 -37 -174 c-21 -96 -39 -185 -42 -199 -3 -14
-7 -36 -10 -49 -9 -40 -45 -214 -50 -241 -2 -14 -7 -36 -10 -50 -5 -22 -92
-436 -102 -485 -2 -11 -24 -120 -50 -243 -25 -123 -44 -225 -42 -228 2 -2 48
11 101 28 102 34 96 29 111 103 3 11 14 65 26 120 11 55 23 114 26 130 10 63
8 62 192 121 97 31 249 81 337 110 457 149 566 184 580 184 9 0 22 -6 29 -12
13 -13 155 -142 230 -210 l40 -35 88 29 c81 27 103 41 79 50 -7 2 -156 136
-221 198 -8 8 -63 58 -120 110 -58 52 -129 117 -159 145 -29 27 -59 55 -65 60
-6 6 -36 33 -66 60 -31 28 -98 88 -149 135 -52 47 -106 96 -121 110 -15 14
-69 63 -120 110 -52 47 -121 111 -154 142 -34 32 -68 57 -76 57 -8 -1 -67 -18
-130 -39z m88 -141 c15 -11 50 -42 77 -68 28 -26 82 -76 120 -111 39 -35 93
-84 120 -110 28 -25 79 -72 115 -105 36 -32 111 -101 168 -154 l103 -95 -73
-23 c-40 -13 -206 -67 -368 -119 -162 -53 -337 -110 -388 -126 -51 -17 -95
-28 -99 -25 -3 3 2 39 11 79 8 40 18 84 20 98 4 20 67 323 81 390 14 68 35
171 40 200 3 19 12 61 20 93 8 32 15 67 15 78 0 24 6 24 38 -2z"/>
<path d="M3965 13884 c-16 -15 -67 -62 -112 -104 l-82 -78 14 -79 c8 -43 16
-92 19 -109 3 -18 8 -49 11 -70 3 -22 7 -50 10 -64 2 -13 7 -42 10 -65 3 -22
8 -51 10 -65 12 -60 15 -76 20 -115 3 -22 10 -62 15 -90 5 -27 11 -66 14 -85
3 -19 30 -186 61 -370 31 -184 59 -356 62 -383 l5 -47 -27 10 c-15 6 -69 20
-119 31 -50 11 -98 22 -106 24 -8 2 -100 24 -205 49 -104 24 -266 63 -359 85
-93 23 -178 43 -190 45 -12 3 -109 26 -216 52 -107 26 -218 51 -246 57 l-51
10 -79 -75 c-43 -42 -92 -87 -107 -101 l-28 -25 58 -63 c32 -34 67 -72 78 -83
11 -12 74 -80 140 -151 66 -71 131 -141 145 -155 14 -15 54 -57 89 -96 69 -73
123 -131 315 -336 65 -70 134 -144 152 -165 l33 -37 33 30 c18 17 48 44 67 61
24 22 31 34 25 45 -5 9 -58 68 -119 133 -60 64 -123 132 -140 149 -16 18 -82
89 -146 157 -64 68 -127 136 -140 150 -13 14 -72 77 -130 140 -59 63 -134 143
-167 179 -33 36 -57 66 -53 68 4 1 37 -5 72 -13 35 -9 73 -18 84 -20 11 -3 83
-20 160 -39 183 -45 396 -97 415 -101 8 -2 55 -13 104 -25 49 -12 94 -23 100
-25 6 -1 22 -5 36 -8 67 -18 528 -129 549 -133 14 -3 28 -7 32 -10 4 -2 39 26
78 63 l70 68 -29 160 c-15 88 -31 178 -34 200 -4 22 -8 47 -11 55 -2 8 -6 37
-10 63 -3 26 -10 71 -16 100 -5 29 -12 68 -15 87 -2 19 -9 59 -15 89 -6 30
-12 64 -14 75 -1 12 -28 172 -60 356 -31 184 -59 347 -62 362 -4 25 3 20 54
-34 32 -34 67 -72 78 -83 18 -20 187 -201 260 -280 178 -191 281 -302 336
-360 36 -38 90 -96 119 -127 30 -32 59 -58 64 -58 12 0 126 108 126 119 0 4
-19 27 -41 51 -23 25 -90 96 -148 159 -58 62 -121 130 -140 150 -99 106 -180
193 -240 256 -36 39 -115 124 -176 189 -60 66 -144 154 -185 197 l-75 79 -30
-26z"/>
<path d="M12113 13550 c-46 -10 -113 -52 -163 -102 -159 -159 -188 -264 -115
-415 57 -115 197 -271 519 -574 157 -148 217 -216 251 -285 45 -92 26 -169
-66 -264 -67 -70 -123 -94 -197 -85 -128 15 -258 113 -660 499 -197 191 -233
288 -147 400 l34 45 -55 53 c-72 69 -80 73 -101 51 -53 -54 -95 -143 -98 -209
-9 -155 102 -309 455 -636 141 -130 153 -141 242 -209 216 -166 378 -212 521
-146 104 47 255 220 276 317 34 155 -50 294 -351 582 -289 275 -390 381 -430
449 -66 110 -61 170 18 258 99 110 178 127 302 63 61 -31 185 -122 257 -188
17 -15 79 -73 140 -128 260 -239 351 -348 355 -426 3 -59 1 -66 -36 -121 l-35
-53 60 -59 c38 -37 66 -57 75 -54 24 10 84 98 102 151 30 89 1 211 -75 316
-79 109 -223 256 -450 458 -285 254 -470 346 -628 312z"/>
<path d="M7778 13315 c-2 -1 -55 -5 -118 -9 -146 -9 -278 -21 -331 -31 -8 -2
-42 -6 -75 -9 -32 -4 -66 -8 -74 -11 -8 -2 -33 -6 -55 -9 -22 -4 -62 -11 -90
-16 -27 -5 -63 -12 -80 -15 -59 -11 -81 -16 -135 -30 -30 -8 -67 -16 -81 -18
-97 -18 -465 -133 -644 -202 -143 -56 -398 -168 -465 -204 -8 -4 -55 -30 -105
-56 -238 -128 -483 -283 -685 -433 -96 -72 -209 -161 -230 -182 -3 -3 -34 -30
-70 -60 -97 -82 -151 -132 -290 -270 -490 -489 -859 -1038 -1140 -1697 -6 -13
-14 -33 -20 -45 -106 -247 -263 -784 -305 -1043 -2 -16 -7 -47 -10 -69 -4 -21
-9 -48 -11 -60 -2 -11 -6 -41 -9 -66 -3 -25 -8 -54 -10 -65 -2 -11 -7 -47 -10
-80 -4 -33 -8 -76 -10 -95 -27 -221 -27 -877 -1 -1040 3 -14 7 -52 10 -85 8
-82 15 -130 26 -195 5 -30 12 -73 15 -95 3 -23 7 -52 10 -65 100 -529 248
-967 485 -1435 151 -299 269 -491 464 -755 65 -88 222 -289 235 -300 3 -3 44
-48 91 -100 108 -121 268 -281 390 -390 52 -47 97 -87 100 -90 16 -17 179
-148 260 -208 52 -40 101 -76 107 -82 7 -6 84 -57 170 -114 361 -237 730 -421
1137 -568 103 -37 450 -142 499 -152 12 -2 65 -14 117 -26 52 -12 118 -26 145
-31 28 -5 61 -11 75 -14 14 -3 45 -8 70 -10 25 -3 52 -8 60 -10 13 -4 230 -32
305 -40 243 -25 871 -25 1002 -1 10 2 50 7 88 11 825 86 1644 383 2345 848
160 107 405 291 510 383 14 12 47 42 75 66 121 104 454 446 545 558 19 24 40
48 46 54 5 6 60 76 120 156 347 457 613 955 795 1490 35 100 115 368 124 410
2 8 15 67 29 130 15 63 29 130 32 149 3 18 8 43 10 55 17 82 50 313 60 411 3
33 7 74 9 90 23 182 23 810 1 933 -2 9 -7 58 -12 107 -4 50 -8 92 -9 95 -1 3
-5 34 -10 70 -5 36 -9 67 -10 70 -1 3 -5 30 -9 60 -4 30 -11 71 -16 90 -5 19
-11 49 -13 65 -9 56 -39 189 -63 285 -194 752 -534 1429 -1018 2030 -70 87
-63 79 -141 166 -320 359 -661 658 -1040 911 -122 81 -320 203 -330 203 -3 0
-23 11 -45 25 -115 72 -455 231 -680 317 -372 142 -871 267 -1210 303 -30 3
-66 8 -80 10 -14 2 -56 7 -95 10 -38 3 -90 8 -115 11 -47 5 -607 14 -612 9z
m607 -168 c17 -3 66 -7 110 -11 44 -4 91 -9 105 -11 14 -2 59 -8 100 -14 136
-19 154 -21 310 -52 682 -135 1344 -415 1915 -812 121 -84 310 -228 386 -294
308 -265 576 -545 765 -799 32 -43 61 -81 64 -84 3 -3 27 -35 53 -72 299 -424
523 -861 686 -1345 54 -158 118 -383 135 -474 2 -13 11 -53 19 -89 24 -104 56
-289 72 -425 2 -16 7 -55 10 -85 39 -318 39 -806 -1 -1140 -3 -30 -8 -71 -10
-90 -2 -19 -6 -50 -9 -68 -3 -17 -8 -47 -10 -66 -7 -55 -55 -295 -77 -386 -11
-47 -22 -94 -24 -105 -11 -61 -134 -446 -169 -530 -7 -16 -36 -88 -65 -160
-69 -170 -228 -486 -330 -654 -284 -473 -609 -862 -1041 -1246 -192 -171 -513
-403 -759 -547 -204 -120 -398 -218 -597 -304 -444 -190 -1023 -343 -1435
-379 -37 -3 -75 -8 -86 -10 -135 -26 -821 -26 -1007 0 -16 3 -70 9 -120 15
-277 33 -467 72 -805 164 -30 8 -118 35 -195 61 -612 204 -1185 526 -1689 950
-39 33 -91 77 -116 99 -59 52 -375 370 -420 422 -86 99 -174 208 -254 314 -47
63 -89 120 -93 125 -45 59 -233 351 -233 361 0 2 -11 21 -23 42 -142 225 -333
655 -442 992 -41 129 -105 361 -119 430 -2 14 -16 81 -29 150 -14 69 -28 143
-31 165 -2 22 -7 47 -10 55 -3 8 -7 38 -10 65 -8 78 -17 157 -21 190 -14 92
-20 262 -20 520 0 332 6 425 41 690 20 151 24 176 30 205 3 14 8 39 11 55 2
17 13 71 24 120 11 50 22 101 25 115 27 140 166 578 229 725 7 17 23 55 35 85
45 110 178 383 238 490 173 306 415 656 582 842 8 9 42 48 75 87 97 112 400
407 535 520 394 330 836 603 1280 791 172 73 176 74 260 105 41 15 91 33 111
40 58 22 294 91 404 119 296 74 622 126 897 142 62 3 114 8 116 9 5 4 592 -4
627 -8z"/>
<path d="M8670 10911 c-51 -16 -108 -51 -134 -82 -52 -61 8 115 -843 -2464
-118 -357 -219 -663 -226 -680 -6 -16 -12 -34 -13 -40 -2 -9 -178 -544 -460
-1390 -110 -330 -126 -389 -127 -446 0 -54 5 -75 25 -110 52 -89 131 -132 239
-133 56 -1 73 3 114 29 92 57 100 74 261 562 82 247 148 450 149 453 1 3 52
158 113 345 62 187 237 716 388 1175 152 459 297 900 324 980 378 1140 502
1527 502 1563 -1 23 -7 57 -15 75 -18 43 -91 118 -137 142 -41 21 -124 32
-160 21z"/>
<path d="M6274 9530 c-32 -9 -113 -46 -179 -82 -66 -36 -156 -84 -200 -108
-44 -23 -366 -196 -715 -383 -349 -187 -669 -358 -710 -380 -41 -21 -102 -54
-135 -72 -33 -18 -96 -51 -140 -75 -101 -53 -122 -72 -151 -138 -31 -67 -30
-124 1 -187 36 -76 61 -97 175 -155 58 -29 110 -56 115 -60 6 -4 51 -29 100
-55 50 -26 122 -64 160 -85 39 -21 115 -61 170 -90 55 -29 123 -65 150 -80 28
-15 91 -49 140 -75 98 -52 193 -103 295 -157 36 -19 106 -57 155 -83 50 -26
117 -62 150 -80 33 -18 98 -53 145 -77 47 -25 110 -59 140 -75 297 -160 313
-167 378 -169 36 -2 82 4 109 13 132 45 194 223 119 342 -56 88 -57 88 -611
356 -93 45 -246 120 -340 165 -210 102 -602 293 -792 385 -79 38 -143 72 -143
75 0 3 172 90 383 194 948 469 1444 720 1470 744 102 96 91 273 -22 357 -64
46 -136 58 -217 35z"/>
<path d="M9464 9527 c-50 -19 -83 -48 -115 -101 -38 -61 -42 -125 -13 -219 21
-70 17 -68 981 -547 l927 -461 -125 -60 c-270 -132 -481 -235 -624 -304 -859
-414 -1054 -513 -1090 -549 -79 -81 -103 -206 -58 -296 64 -129 226 -167 373
-88 36 19 135 72 220 118 85 46 182 97 215 115 33 18 110 58 170 90 61 32 124
65 140 75 17 9 75 41 130 70 180 95 266 141 560 298 368 196 386 206 528 281
74 40 126 75 142 95 36 47 53 125 43 197 -11 86 -45 130 -132 175 -39 20 -93
49 -121 64 -62 33 -154 83 -355 190 -158 84 -245 131 -335 180 -67 36 -178 95
-300 160 -55 29 -104 56 -110 60 -5 4 -73 40 -150 80 -77 40 -144 76 -150 80
-5 4 -64 36 -130 70 -66 35 -140 74 -165 88 -239 132 -271 145 -349 149 -44 1
-89 -2 -107 -10z"/>
<path d="M13177 11819 c-73 -20 -74 -74 -4 -182 247 -378 429 -731 595 -1147
50 -127 151 -420 177 -513 8 -29 28 -104 45 -167 18 -63 33 -122 35 -130 2 -9
14 -67 29 -130 14 -63 28 -128 31 -145 17 -95 45 -266 50 -300 2 -22 7 -58 10
-80 10 -74 15 -120 21 -185 3 -36 7 -76 9 -90 24 -145 24 -909 0 -1061 -3 -22
-6 -51 -21 -199 -2 -25 -7 -61 -9 -80 -3 -19 -10 -66 -15 -103 -40 -276 -121
-627 -215 -932 -45 -146 -140 -410 -175 -490 -45 -100 -44 -137 0 -168 25 -18
77 -14 97 6 55 54 308 813 357 1067 2 14 16 77 30 140 13 63 27 129 29 145 3
17 12 73 21 125 8 52 18 115 21 140 3 25 7 59 10 75 6 36 14 108 21 190 2 33
7 74 9 90 24 156 24 918 0 1066 -2 13 -6 58 -10 99 -4 41 -8 86 -10 100 -1 14
-6 50 -9 80 -4 30 -9 62 -11 70 -2 8 -7 35 -10 60 -47 359 -174 856 -320 1250
-120 322 -298 705 -446 958 -30 51 -58 101 -64 110 -106 181 -199 316 -226
328 -14 6 -36 8 -52 3z"/>
<path d="M2529 11419 c-58 -21 -325 -563 -476 -964 -74 -197 -189 -564 -207
-659 -2 -12 -13 -57 -24 -101 -23 -92 -76 -357 -92 -460 -16 -106 -27 -179
-35 -235 -5 -31 -16 -143 -20 -191 -2 -19 -7 -80 -12 -135 -10 -123 -11 -791
0 -899 4 -44 10 -107 13 -140 3 -33 7 -76 10 -95 2 -19 7 -60 10 -90 3 -30 7
-66 9 -80 2 -14 6 -43 10 -65 3 -23 7 -52 10 -65 3 -13 7 -42 11 -65 5 -35 24
-135 38 -205 3 -14 8 -38 11 -55 5 -28 10 -48 36 -160 53 -232 167 -597 264
-845 72 -186 96 -213 164 -184 55 23 59 63 14 168 -106 251 -258 739 -309 991
-2 11 -11 54 -19 95 -23 116 -24 118 -44 240 -11 63 -25 156 -31 205 -6 50
-13 101 -15 115 -6 44 -24 263 -30 375 -5 81 -5 514 -1 595 6 115 18 284 21
302 2 9 6 49 10 90 3 40 12 114 20 163 8 50 16 106 19 125 85 603 347 1389
646 1935 18 33 50 92 71 131 22 39 39 78 39 87 0 29 -22 65 -47 76 -28 13 -29
13 -64 0z"/>
<path d="M13163 5508 c-4 -7 -117 -202 -250 -433 l-243 -420 27 -14 c15 -8
165 -94 333 -191 168 -97 332 -192 365 -210 33 -18 71 -40 85 -50 56 -38 49
-46 206 228 81 141 192 333 246 425 54 93 98 172 98 176 0 13 -81 54 -90 45
-4 -5 -101 -171 -215 -369 -113 -198 -210 -363 -213 -367 -4 -4 -75 32 -158
80 l-151 86 25 46 c18 32 358 620 387 671 2 3 -16 16 -40 29 -55 30 -43 43
-170 -185 -24 -43 -287 -498 -290 -503 -6 -7 -285 156 -285 167 0 9 162 291
191 333 10 15 19 29 19 32 0 2 48 87 106 187 58 100 106 186 107 191 1 5 -17
20 -40 34 -32 20 -43 22 -50 12z"/>
<path d="M2678 5406 c-44 -16 -114 -57 -149 -88 -40 -35 -59 -81 -59 -142 0
-93 52 -207 208 -458 95 -152 137 -235 147 -291 12 -64 -27 -119 -118 -162
-122 -58 -194 4 -409 350 -104 169 -123 210 -123 272 0 47 3 55 38 86 l39 34
-32 51 c-35 58 -40 58 -98 2 -107 -102 -80 -231 115 -544 240 -385 370 -464
566 -343 93 57 128 99 141 171 14 80 -42 212 -199 466 -199 320 -208 386 -63
461 103 53 174 7 312 -201 110 -165 139 -213 183 -298 59 -115 58 -161 -8
-220 l-29 -27 31 -47 c17 -27 35 -48 40 -48 18 0 92 76 106 107 42 102 -4 232
-180 508 -198 309 -323 407 -459 361z"/>
<path d="M12325 4198 c-84 -30 -158 -93 -509 -432 -132 -127 -248 -239 -258
-249 -20 -19 -15 -39 19 -68 10 -8 115 -116 233 -238 118 -123 261 -271 318
-329 l102 -106 45 44 45 44 -87 90 c-91 92 -121 123 -162 169 l-25 27 80 76
c43 42 133 129 199 193 297 287 342 318 409 284 17 -8 75 -61 128 -116 108
-110 100 -108 161 -43 l27 30 -52 54 c-146 151 -185 181 -244 186 -25 3 -52
-3 -77 -15 l-38 -20 21 40 c45 90 16 172 -102 293 -92 93 -151 115 -233 86z
m144 -175 c75 -74 100 -108 106 -146 9 -46 -64 -134 -284 -347 -117 -113 -237
-228 -266 -257 l-54 -51 -133 140 c-123 130 -140 154 -118 168 4 3 104 98 221
212 284 273 297 285 348 319 72 47 100 41 180 -38z"/>
<path d="M3626 4094 c-75 -26 -159 -102 -340 -307 -122 -139 -180 -245 -170
-312 9 -64 18 -88 53 -141 54 -82 150 -176 450 -442 181 -160 309 -201 430
-138 31 16 89 63 135 109 70 71 105 109 217 237 81 93 127 205 115 281 -17
106 -89 188 -438 499 -26 23 -62 55 -80 71 -18 16 -66 52 -106 79 -103 70
-188 90 -266 64z m179 -129 c47 -27 98 -67 169 -132 29 -27 88 -79 131 -118
153 -135 264 -248 284 -287 43 -88 15 -140 -214 -395 -137 -152 -219 -210
-280 -199 -52 10 -153 84 -295 216 -15 14 -60 54 -101 90 -133 117 -239 226
-254 263 -38 91 -10 142 196 369 210 231 256 256 364 193z"/>
<path d="M5007 3023 c-19 -38 -121 -237 -226 -444 l-191 -377 56 -26 c31 -15
58 -26 59 -24 2 2 43 84 93 183 50 99 97 188 104 199 13 17 25 13 209 -82 378
-194 492 -252 498 -252 4 0 17 20 29 45 l22 45 -93 46 c-136 68 -601 306 -605
310 -3 2 134 282 144 292 3 4 176 -82 523 -260 128 -66 217 -106 222 -101 5 5
18 26 28 46 l18 36 -201 102 c-110 56 -301 153 -423 215 -122 63 -224 114
-226 114 -3 0 -20 -30 -40 -67z"/>
<path d="M10615 2926 c-66 -34 -80 -45 -81 -66 -1 -14 -5 -95 -9 -180 -3 -85
-8 -184 -10 -220 -2 -36 -7 -128 -10 -205 -6 -138 -10 -212 -20 -412 l-5 -103
65 32 c62 31 65 34 66 70 1 21 3 56 4 78 1 22 3 64 4 93 l1 52 73 38 c39 21
197 101 349 178 l276 140 99 -64 c54 -35 103 -67 110 -71 7 -4 38 6 70 22 l57
30 -174 114 c-96 63 -308 202 -470 309 -162 107 -299 198 -305 201 -5 3 -46
-13 -90 -36z m328 -256 c147 -96 267 -177 267 -180 0 -3 -131 -72 -291 -154
l-291 -148 6 133 c16 363 20 434 25 517 1 8 5 12 10 10 4 -1 128 -82 274 -178z"/>
<path d="M6301 2506 c-14 -57 -14 -63 2 -63 14 0 460 -113 465 -118 2 -1 -13
-67 -33 -146 -20 -79 -38 -151 -40 -159 -5 -23 -65 -260 -75 -300 -32 -116
-60 -244 -57 -254 4 -11 106 -41 112 -34 3 3 110 429 120 474 15 73 96 378
100 383 3 3 110 -21 238 -52 128 -32 235 -57 238 -57 7 0 32 90 27 96 -2 1
-240 62 -528 134 -289 72 -532 133 -541 136 -13 3 -19 -6 -28 -40z"/>
<path d="M9726 2463 c-2 -2 -20 -4 -40 -5 -43 -2 -48 -7 -69 -78 -8 -30 -30
-102 -47 -160 -18 -58 -38 -125 -45 -150 -41 -139 -165 -543 -168 -546 -2 -2
-117 183 -257 411 -280 460 -248 423 -353 409 l-46 -7 -36 -116 c-20 -64 -54
-170 -75 -236 -21 -66 -71 -224 -111 -352 l-72 -232 -87 132 c-161 244 -205
312 -210 322 -5 10 -156 242 -213 327 -26 40 -37 48 -62 48 -49 0 -105 -12
-105 -22 0 -6 29 -53 63 -106 35 -54 133 -203 217 -332 84 -129 190 -291 235
-360 l82 -126 86 10 c79 8 87 11 96 35 5 14 44 136 86 271 42 135 96 308 120
385 24 77 49 159 56 183 7 23 15 42 18 42 3 0 112 -174 241 -387 129 -213 242
-394 250 -404 14 -16 22 -16 94 -6 l79 12 138 455 c194 638 181 589 158 587
-11 -1 -21 -3 -23 -4z"/>
<path d="M6570 1054 c-80 -26 -101 -38 -119 -67 -27 -44 -31 -72 -32 -223 -1
-150 11 -205 49 -241 51 -47 89 -53 322 -50 202 2 218 3 257 25 24 12 50 36
59 54 20 38 32 197 15 207 -5 4 -86 6 -178 6 l-168 -1 0 -29 0 -30 140 0 140
0 1 -48 c1 -62 -20 -103 -59 -117 -19 -6 -110 -11 -224 -10 -221 0 -253 7
-272 60 -17 49 -14 312 3 355 21 50 60 57 297 53 197 -3 199 -3 223 -28 21
-21 30 -45 35 -92 1 -5 17 -8 36 -8 36 0 36 0 31 39 -8 64 -32 100 -84 124
-43 20 -65 22 -252 24 -113 1 -212 -1 -220 -3z"/>
<path d="M8149 1003 c-1 -53 0 -439 0 -490 1 -31 3 -33 36 -33 33 0 35 2 35
32 0 32 0 32 15 11 24 -34 103 -53 203 -49 178 7 232 64 228 238 -3 99 -26
144 -91 177 -42 22 -60 25 -164 26 -102 0 -120 -3 -153 -22 l-38 -22 0 89 0
90 -35 0 c-35 0 -35 0 -36 -47z m393 -158 c39 -16 52 -56 52 -151 0 -107 -13
-134 -70 -152 -47 -14 -221 -10 -251 7 -39 20 -52 60 -50 153 2 97 17 129 69
145 36 11 222 10 250 -2z"/>
<path d="M8775 768 l0 -283 36 -3 36 -3 -1 118 c-1 65 0 124 2 131 3 9 64 12
262 12 l257 0 1 -127 0 -128 35 -3 35 -3 1 285 0 286 -35 0 c-39 0 -36 10 -35
-163 l1 -87 -262 2 -262 3 0 123 1 122 -36 0 -36 0 0 -282z"/>
<path d="M7405 911 c-36 -9 -74 -28 -97 -49 -17 -14 -18 -13 -14 17 3 30 2 31
-33 28 l-36 -2 -1 -213 -1 -213 36 3 35 3 1 152 0 153 31 31 c28 28 38 31 105
34 158 6 171 -12 171 -226 l0 -149 34 0 c19 0 34 3 35 8 0 4 2 72 3 152 2 80
6 153 11 163 25 58 231 75 274 23 16 -20 19 -51 20 -203 l1 -143 35 0 c40 0
37 -17 36 190 -1 204 -22 238 -159 245 -86 5 -158 -11 -201 -43 -34 -25 -34
-25 -50 -5 -9 12 -27 26 -40 33 -29 15 -154 22 -196 11z"/>
</g>
</svg>
